<svg xmlns="http://www.w3.org/2000/svg" viewBox="0 0 773.36 180.47"><defs><style>.cls-1{fill:#288cc6;}.cls-2{fill:#a5c853;}.cls-3{fill:#1162a2;}</style></defs><title>Asset 1</title><g id="Layer_2" data-name="Layer 2"><g id="Layer_1-2" data-name="Layer 1"><path class="cls-1" d="M30.3,89.26a42.44,42.44,0,1,1,72.56.13v47.09c15.73-23.12,30.51-50.24,30-70C132,29.76,103.14,0,66.45,0S.89,29.76,0,66.44c-.47,19.77,14.26,46.85,30,70V89.26Z"/><path class="cls-2" d="M102.85,80.28l-6.38.08-.08-11.83H85.83l.07,20.72H82.72l-.08-34.48h-5l-.09-8.89H63.09l.08,14.26-6.79.08v29H53.7V63.17L41.37,63l-.09,14.93-6.46-.08.05,11.41H30.3a42.45,42.45,0,0,0,72.56.13v-9.1Z"/><path class="cls-3" d="M102.85,136.47V89.38a42.45,42.45,0,0,1-72.56-.13H30v47.14a496.77,496.77,0,0,0,32.48,42.25,5.25,5.25,0,0,0,8,0A498.11,498.11,0,0,0,102.85,136.47Z"/><path class="cls-3" d="M190.52,103.61h0A64.46,64.46,0,0,0,179,99.71c-5.72-1.45-10.09-3.08-13-4.85a8.13,8.13,0,0,1-4.18-6.92,8.41,8.41,0,0,1,3.82-7.6,17.68,17.68,0,0,1,9.88-2.68,22.5,22.5,0,0,1,8.84,1.74,19.7,19.7,0,0,1,7.09,5.12,4.53,4.53,0,0,0,3.28,1.43,4.81,4.81,0,0,0,3.23-1.12,4.88,4.88,0,0,0,1.74-3.72,4.45,4.45,0,0,0-1.58-3.57,25.38,25.38,0,0,0-10.24-7.18A33.35,33.35,0,0,0,176,68.09a29.49,29.49,0,0,0-12.31,2.48A21.32,21.32,0,0,0,155,77.65a17.67,17.67,0,0,0-3.26,10.42c0,6.12,2.26,10.83,6.73,14,4.23,3,10.13,5.5,17.53,7.37A41.34,41.34,0,0,1,187.69,114a7.89,7.89,0,0,1,3.74,7.2,8.3,8.3,0,0,1-4.07,7.52,18.91,18.91,0,0,1-10.29,2.76,23.2,23.2,0,0,1-19.62-9.75l-.12-.13a5.29,5.29,0,0,0-3.81-1.69,4.13,4.13,0,0,0-2.88,1,4.09,4.09,0,0,0-2.23,3.68,7,7,0,0,0,1.25,3.57l.09.12c6.54,8.27,15.47,12.46,26.54,12.46,7,0,13-1.79,17.74-5.32a17.38,17.38,0,0,0,7.37-14.66c0-4.47-1-8.14-3.08-10.9A20.38,20.38,0,0,0,190.52,103.61Z"/><path class="cls-3" d="M260,70.07a5.12,5.12,0,0,0-5.24,5.24v37.1c0,5.92-1.57,10.46-4.67,13.48s-7.61,4.57-13.37,4.57-10.1-1.53-13.17-4.56-4.61-7.56-4.61-13.48V75.31a5.24,5.24,0,1,0-10.48,0v37.1c0,8.92,2.55,15.9,7.57,20.73s12,7.27,20.7,7.27,15.84-2.44,20.89-7.26,7.64-11.81,7.64-20.73V75.31A5.12,5.12,0,0,0,260,70.07Z"/><path class="cls-3" d="M467.68,68.49a5.11,5.11,0,0,0-5.24,5.24v60.52a5.24,5.24,0,1,0,10.48,0V73.73a5.12,5.12,0,0,0-5.24-5.24Z"/><path class="cls-3" d="M467.81,48.62a7.57,7.57,0,0,0-5,1.55,5.67,5.67,0,0,0-2,4.61V56.1a5.77,5.77,0,0,0,1.89,4.6,7.3,7.3,0,0,0,4.92,1.57,7,7,0,0,0,4.88-1.58,5.88,5.88,0,0,0,1.81-4.58V54.78C474.37,50.81,472,48.62,467.81,48.62Z"/><path class="cls-3" d="M511.88,79.89a5,5,0,0,0,3.52-1.34A4.62,4.62,0,0,0,516.86,75a5,5,0,0,0-1.47-3.52,4.7,4.7,0,0,0-3.51-1.59H500V56.62a5.24,5.24,0,1,0-10.48,0V69.93h-8.31a5.07,5.07,0,0,0-3.59,1.41,5,5,0,0,0,0,7.14,5.06,5.06,0,0,0,3.59,1.4h8.31v43.18c0,5.17.93,8.87,2.84,11.32a11.29,11.29,0,0,0,6,4.41,28.75,28.75,0,0,0,6.62.69,10.91,10.91,0,0,0,5.66-1.43,4.82,4.82,0,0,0,2.74-4.2,4.69,4.69,0,0,0-1.17-3.15,3.93,3.93,0,0,0-3-1.43,8.49,8.49,0,0,0-2.19.38,6.33,6.33,0,0,1-1.63.28,5.43,5.43,0,0,1-4-1.42c-.66-.64-1.45-2.16-1.45-5.84V79.89Z"/><path class="cls-3" d="M326.42,72.76a30.43,30.43,0,0,0-16.47-4.67,27.84,27.84,0,0,0-14.75,4.14,29.5,29.5,0,0,0-8,7.16V44.92a5.24,5.24,0,1,0-10.48,0v87.76a5.32,5.32,0,0,0,1.47,3.78,5.26,5.26,0,0,0,7.54,0,5.17,5.17,0,0,0,1.25-3.78V104.25c0-5.89.76-10.1,2.46-13.65A21.37,21.37,0,0,1,309.29,78a20.9,20.9,0,0,1,11.6,3.34,23.08,23.08,0,0,1,8.1,9.29,30.36,30.36,0,0,1,3,13.57,30.89,30.89,0,0,1-3,13.58,23.84,23.84,0,0,1-8.11,9.56,20.33,20.33,0,0,1-11.58,3.46,20.85,20.85,0,0,1-11.77-3.44,4.47,4.47,0,0,0-5.27,7.2,29.74,29.74,0,0,0,3.3,2.26,28.3,28.3,0,0,0,14.53,3.93A29.49,29.49,0,0,0,326.5,136a33,33,0,0,0,11.5-13.2,41.32,41.32,0,0,0,4.15-18.53A40.8,40.8,0,0,0,338,85.71,32,32,0,0,0,326.42,72.76Z"/><path class="cls-3" d="M403.15,84.41A21.4,21.4,0,0,0,394.73,73a24.54,24.54,0,0,0-13.87-3.9,26.2,26.2,0,0,0-13.41,3.73,31.15,31.15,0,0,0-7.66,6.24V75.31a5.24,5.24,0,1,0-10.48,0v58.94a5.24,5.24,0,1,0,10.48,0V97a15.58,15.58,0,0,1,2.74-8.82,20.63,20.63,0,0,1,7.31-6.63,19.73,19.73,0,0,1,9.57-2.47c5.23,0,8.93,1.57,11.33,4.8s3.69,7.72,3.69,13.11v31.75a5.24,5.24,0,1,0,10.48,0V97.42a67.54,67.54,0,0,0-.32-7.37A29.06,29.06,0,0,0,403.15,84.41Z"/><path class="cls-3" d="M426.9,69.14a30.43,30.43,0,0,0-15.52,4.52,34.23,34.23,0,0,0-5,3.57,4.28,4.28,0,0,0,5.57,6.51,21.09,21.09,0,0,1,13.15-4.66c5.41,0,9.27,1.62,11.8,4.95s3.88,7.89,3.88,13.36v36.84a5.24,5.24,0,1,0,10.48,0V97c0-8.24-2-15-5.86-20.06S435.18,69.14,426.9,69.14Z"/><path class="cls-3" d="M772.7,43.33a8.34,8.34,0,0,1-1.33-1.53,9.59,9.59,0,0,0-1-1.21h0a5.89,5.89,0,0,0-10.08,4.2v89.46a5.94,5.94,0,0,0,10.09,4.2,9.57,9.57,0,0,0,1-1.22,8.35,8.35,0,0,1,1.33-1.53l.66-.58V43.91Z"/><path class="cls-3" d="M533.28,38.9a5.76,5.76,0,0,0-5.89,5.89v89.46a5.89,5.89,0,1,0,11.77,0V44.78a5.76,5.76,0,0,0-5.89-5.89Z"/><path class="cls-3" d="M676.85,123a5.28,5.28,0,0,0-2.69.73,14.12,14.12,0,0,0-2.09,1.56,26.65,26.65,0,0,1-2.82,2.15,26.81,26.81,0,0,1-5.21,2.09,27.43,27.43,0,0,1-7,.72,22.7,22.7,0,0,1-20.78-12.51,28.48,28.48,0,0,1-3.07-13.31,27,27,0,0,1,3.19-13A24.31,24.31,0,0,1,645,82.09a23,23,0,0,1,12.21-3.4,36.37,36.37,0,0,1,6.56.56,20.26,20.26,0,0,1,4.68,1.34,11.32,11.32,0,0,1,2.78,2.13,12.42,12.42,0,0,0,2.26,1.86,6,6,0,0,0,3.19.82,5,5,0,0,0,3.92-1.88,5.92,5.92,0,0,0,1.44-3.87c0-2.48-1.35-4.74-4-6.69a27,27,0,0,0-9.21-4.06,48,48,0,0,0-12-1.44A34.27,34.27,0,0,0,625.8,85.91a39,39,0,0,0-4.43,18.47,40.79,40.79,0,0,0,4.36,18.91,33,33,0,0,0,12.36,13.33,34.44,34.44,0,0,0,18.11,4.82A40.56,40.56,0,0,0,669,139.5a29.55,29.55,0,0,0,9.3-4.74c2.61-2.12,3.87-4.18,3.87-6.31a5.59,5.59,0,0,0-1.45-3.89A5.21,5.21,0,0,0,676.85,123Z"/><path class="cls-3" d="M600.28,72.33h0A34.75,34.75,0,0,0,551.66,85.7a41,41,0,0,0,0,37.63,34.11,34.11,0,0,0,12.69,13.31,33.61,33.61,0,0,0,6.51,3,5.67,5.67,0,0,0,1.8.3,5.6,5.6,0,0,0,3.29-1.07,5.69,5.69,0,0,0-1.43-10,21.37,21.37,0,0,1-4.07-2,23.82,23.82,0,0,1-8.46-9.2,27.74,27.74,0,0,1-3.13-13.17A28,28,0,0,1,562,91.21a23.85,23.85,0,0,1,8.46-9.2,22,22,0,0,1,11.86-3.32A22.36,22.36,0,0,1,594.25,82a23.22,23.22,0,0,1,8.44,9.18,30.4,30.4,0,0,1,0,26.63,22.73,22.73,0,0,1-8.43,9.1,22.11,22.11,0,0,1-4.12,2,5.66,5.66,0,0,0-1.47,10,5.59,5.59,0,0,0,5.09.78,33.61,33.61,0,0,0,6.51-3A34.12,34.12,0,0,0,613,123.33a41,41,0,0,0,0-37.63A34.63,34.63,0,0,0,600.28,72.33Z"/><path class="cls-3" d="M747.66,70.82a5.91,5.91,0,0,0-8.48,0A6,6,0,0,0,737.54,75v2a28.86,28.86,0,0,0-7-5.56,31.32,31.32,0,0,0-32.07.7,33.31,33.31,0,0,0-11.8,13.19,40.92,40.92,0,0,0-4.29,18.84,41.83,41.83,0,0,0,4.22,18.89,33.68,33.68,0,0,0,11.72,13.39,30.33,30.33,0,0,0,16.94,4.92,37.92,37.92,0,0,0,3.84-.2,24.14,24.14,0,0,0,8.32-2.4,35.12,35.12,0,0,0,7.73-5.15,5.09,5.09,0,0,0-6.64-7.7q-.6.48-1.25.91a20,20,0,0,1-11.23,3.29,20.18,20.18,0,0,1-11.36-3.29,22.24,22.24,0,0,1-7.8-9.21,31.09,31.09,0,0,1-2.84-13.44A29.69,29.69,0,0,1,696.94,91a22.4,22.4,0,0,1,7.87-9,20.25,20.25,0,0,1,11.24-3.24A20,20,0,0,1,727.29,82a22.82,22.82,0,0,1,7.88,9.17c1.71,3.49,2.5,7.65,2.5,13.09v30a5.61,5.61,0,0,0,1.55,4.2,5.89,5.89,0,0,0,10.09-4.2V75a6,6,0,0,0-1.64-4.22Z"/></g></g></svg>